# xmcd
#
# Track frame offsets:
#	150
#	14464
#	43269
#	57045
#	71115
#	96849
#	110000
#	127739
#	139896
#	160354
#	181241
#	213758
#	226724
#
# Disc length: 3192
#
# Revision: 1
# Processed by: cddbd v1.5.1PL0 Copyright (c) Steve Scherf et al.
# Submitted via: CDex 1.50
# Normalized: r0:TSWAP
#
DISCID=b00c760d
DTITLE=Amor_Laura - Fygi
DYEAR=1900
DGENRE=Salsa
TTITLE0=Laura Fygi - Amor
TTITLE1=Azucar - Because You Loved Me
TTITLE2=Laura Fygi - Como Fue
TTITLE3=Cruz - Guantanamera_Celia
TTITLE4=Tito Puente - Mambo Birdland
TTITLE5=Celia Cruz - Melao De Cana (Moo La Lah)
TTITLE6=Tito Puente - Oye Como Va (Give It All You've Got)
TTITLE7=Celina Gonzalez - Paisajes Naturales
TTITLE8=Carin Cosa Latin Band - Pasado
TTITLE9=Eliades Ochoa - Pintate Los Labios Maria
TTITLE10=Caravana Cubana - Romanza Guajira
TTITLE11=Laura Fygi - Solamente Una Vez
TTITLE12=Laura Fygi - You Belong To My Heart
EXTD=
EXTT0=
EXTT1=
EXTT2=
EXTT3=
EXTT4=
EXTT5=
EXTT6=
EXTT7=
EXTT8=
EXTT9=
EXTT10=
EXTT11=
EXTT12=
PLAYORDER=
